HIERARCHY
ROOT joint_Root
{
	OFFSET 0.0 0.0 0.0
	CHANNELS 6 Xposition Yposition Zposition Zrotation Xrotation Yrotation 
	JOINT Hips
	{
		OFFSET -17.1583 93.1646 452.98
		CHANNELS 6 Xposition Yposition Zposition Zrotation Xrotation Yrotation 
		JOINT Spine
		{
			OFFSET 15.7357 0.0 0.0
			CHANNELS 6 Xposition Yposition Zposition Zrotation Xrotation Yrotation 
			JOINT Chest
			{
				OFFSET 8.98455 -0.406207 0.0
				CHANNELS 6 Xposition Yposition Zposition Zrotation Xrotation Yrotation 
				JOINT Neck
				{
					OFFSET 16.3773 0.0 0.0
					CHANNELS 6 Xposition Yposition Zposition Zrotation Xrotation Yrotation 
					JOINT Head
					{
						OFFSET 6.45672 0.0 0.0
						CHANNELS 6 Xposition Yposition Zposition Zrotation Xrotation Yrotation 
						End Site
						{
							OFFSET 0.0 0.0 0.0
						}
					}
				}
				JOINT Shoulder_L
				{
					OFFSET 12.9942 -0.242716 4.98039
					CHANNELS 6 Xposition Yposition Zposition Zrotation Xrotation Yrotation 
					JOINT UpperArm_L
					{
						OFFSET 5.34809 0.0 0.0
						CHANNELS 6 Xposition Yposition Zposition Zrotation Xrotation Yrotation 
						JOINT LowerArm_L
						{
							OFFSET 24.3286 1.87007e-05 0.0
							CHANNELS 6 Xposition Yposition Zposition Zrotation Xrotation Yrotation 
							JOINT Hand_L
							{
								OFFSET 22.2916 0.0 0.0
								CHANNELS 6 Xposition Yposition Zposition Zrotation Xrotation Yrotation 
								End Site
								{
									OFFSET 0.0 0.0 0.0
								}
							}
						}
					}
				}
				JOINT Shoulder_R
				{
					OFFSET 12.9945 -0.242716 -4.98039
					CHANNELS 6 Xposition Yposition Zposition Zrotation Xrotation Yrotation 
					JOINT UpperArm_R
					{
						OFFSET -5.34813 0.0 0.0
						CHANNELS 6 Xposition Yposition Zposition Zrotation Xrotation Yrotation 
						JOINT LowerArm_R
						{
							OFFSET -24.3289 0.000322201 0.0
							CHANNELS 6 Xposition Yposition Zposition Zrotation Xrotation Yrotation 
							JOINT Hand_R
							{
								OFFSET -22.2915 -0.000108084 0.0
								CHANNELS 6 Xposition Yposition Zposition Zrotation Xrotation Yrotation 
								End Site
								{
									OFFSET 0.0 0.0 0.0
								}
							}
						}
					}
				}
			}
		}
		JOINT UpperLeg_L
		{
			OFFSET -2.19248 -6.46944 0.0
			CHANNELS 6 Xposition Yposition Zposition Zrotation Xrotation Yrotation 
			JOINT LowerLeg_L
			{
				OFFSET 39.0811 0.0 -1.23785e-05
				CHANNELS 6 Xposition Yposition Zposition Zrotation Xrotation Yrotation 
				JOINT Foot_L
				{
					OFFSET 40.9854 0.0 -1.26872e-05
					CHANNELS 6 Xposition Yposition Zposition Zrotation Xrotation Yrotation 
					JOINT Toes_L
					{
						OFFSET 11.7543 0.0 0.0
						CHANNELS 6 Xposition Yposition Zposition Zrotation Xrotation Yrotation 
						End Site
						{
							OFFSET 0.0 0.0 0.0
						}
					}
				}
			}
		}
		JOINT UpperLeg_R
		{
			OFFSET -2.19251 6.46944 0.0
			CHANNELS 6 Xposition Yposition Zposition Zrotation Xrotation Yrotation 
			JOINT LowerLeg_R
			{
				OFFSET -39.0811 -0.00228153 -0.0401928
				CHANNELS 6 Xposition Yposition Zposition Zrotation Xrotation Yrotation 
				JOINT Foot_R
				{
					OFFSET -40.9854 0.0 0.0
					CHANNELS 6 Xposition Yposition Zposition Zrotation Xrotation Yrotation 
					JOINT Toes_R
					{
						OFFSET -11.7543 0.0 0.0
						CHANNELS 6 Xposition Yposition Zposition Zrotation Xrotation Yrotation 
						End Site
						{
							OFFSET 0.0 0.0 0.0
						}
					}
				}
			}
		}
	}
}
MOTION
Frames:	7
Frame Time:	0.0333333
0.000000 0.000000 0.000000 0.000000 0.000000 -0.000000 192.034000 89.409000 -73.614400 92.972400 -0.197420 -6.271370 15.735700 0.000005 -0.000001 143.751000 87.705600 -144.859000 8.984550 -0.406207 -0.000000 -5.020810 3.820240 -2.049570 16.377300 -0.000001 -0.000001 1.191920 -0.157971 0.507406 6.456720 -0.000001 -0.000000 5.047000 -1.857390 -4.772250 12.994200 -0.242716 4.980390 -92.867400 8.158950 -70.560400 5.348090 -0.000007 -0.000001 -59.682200 -18.330700 8.117330 24.328600 0.000019 0.000005 4.798840 16.940300 -16.072800 22.291600 -0.000001 0.000005 49.338900 4.343810 19.110800 12.994500 -0.242716 -4.980390 88.830700 4.000160 -73.691500 -5.348130 -0.000001 -0.000004 -72.019900 14.920200 -10.910600 -24.328900 0.000322 -0.000009 1.910880 2.298780 -39.769400 -22.291500 -0.000108 -0.000004 39.794700 5.453140 -4.752620 -2.192480 -6.469440 -0.000000 176.161000 2.735990 -34.749600 39.081100 -0.000007 -0.000012 0.032675 -0.058659 29.118800 40.985400 -0.000006 -0.000013 -3.064200 4.741540 -57.780700 11.754300 -0.000000 0.000003 0.000424 0.160144 -10.081800 -2.192510 6.469440 -0.000001 174.903000 5.894530 -176.063000 -39.081100 -0.002282 -0.040193 0.077816 -0.098171 37.205500 -40.985400 0.000008 0.000006 -0.903164 5.450040 -50.238700 -11.754300 -0.000006 -0.000006 -0.134479 -0.523123 -38.606300
0.000000 0.000000 0.000000 0.000000 0.000000 -0.000000 192.760000 89.546200 -68.746200 93.514800 -0.375100 -4.770640 15.735700 0.000005 -0.000001 134.587000 87.634600 -135.808000 8.984550 -0.406207 -0.000000 -4.363010 3.447450 -2.312320 16.377300 -0.000001 -0.000001 1.282200 -0.121941 0.598721 6.456720 -0.000001 -0.000000 5.074950 -1.628930 -4.774060 12.994200 -0.242716 4.980390 -92.992900 8.607820 -70.744500 5.348090 -0.000007 -0.000001 -64.724200 -13.787600 4.741720 24.328600 0.000019 0.000005 4.148410 18.019000 -13.195800 22.291600 -0.000001 0.000005 48.408200 4.357760 18.892000 12.994500 -0.242716 -4.980390 88.686500 4.453380 -73.548900 -5.348130 -0.000001 -0.000004 -72.633500 16.268000 -8.913340 -24.328900 0.000322 -0.000009 1.367900 2.420640 -29.502100 -22.291500 -0.000108 -0.000004 37.563900 5.470040 -5.372070 -2.192480 -6.469440 -0.000000 174.626000 2.258950 -31.683000 39.081100 -0.000007 -0.000012 0.109428 -0.168721 32.966100 40.985400 -0.000006 -0.000013 -0.711378 5.190190 -62.812300 11.754300 -0.000000 0.000003 -0.000682 0.178415 -9.339750 -2.192510 6.469440 -0.000001 173.875000 4.571850 179.502000 -39.081100 -0.002282 -0.040193 0.177318 -0.161212 47.194800 -40.985400 0.000008 0.000006 -3.756920 2.944830 -38.584400 -11.754300 -0.000006 -0.000006 -0.017564 -0.153399 -22.836200
0.000000 0.000000 0.000000 0.000000 0.000000 -0.000000 193.425000 89.676300 -64.507500 94.212000 -1.063040 -3.369050 15.735700 0.000005 -0.000001 119.894000 87.639600 -121.253000 8.984550 -0.406207 -0.000000 -3.644030 2.486730 -2.638610 16.377300 -0.000001 -0.000001 1.257560 0.416504 0.229257 6.456720 -0.000001 -0.000000 5.348250 -0.692055 -4.579790 12.994200 -0.242716 4.980390 -93.036100 8.756200 -70.790900 5.348090 -0.000007 -0.000001 -69.025900 -7.537560 1.854930 24.328600 0.000019 0.000005 4.590960 21.974400 -12.111500 22.291600 -0.000001 0.000005 47.296800 4.430080 17.741100 12.994500 -0.242716 -4.980390 88.655700 4.587290 -73.648100 -5.348130 -0.000001 -0.000004 -73.987400 16.418600 -6.989630 -24.328900 0.000322 -0.000009 1.871790 5.356160 -19.305900 -22.291500 -0.000108 -0.000004 36.336300 5.466100 -5.225380 -2.192480 -6.469440 -0.000000 172.910000 -0.042484 -28.106500 39.081100 -0.000007 -0.000012 0.158431 -0.228284 34.761000 40.985400 -0.000006 -0.000013 0.917624 6.584680 -66.490600 11.754300 -0.000000 0.000003 -0.001645 0.191814 -8.795140 -2.192510 6.469440 -0.000001 172.616000 3.469620 172.956000 -39.081100 -0.002282 -0.040193 0.326900 -0.210460 56.968300 -40.985400 0.000008 0.000006 -6.094420 -1.216870 -27.725400 -11.754300 -0.000006 -0.000006 0.000020 0.167327 -9.786660
0.000000 0.000000 0.000000 0.000000 0.000000 -0.000000 193.855000 90.133000 -60.489700 94.572400 -1.426610 -2.145180 15.735700 0.000005 -0.000001 100.553000 87.570700 -101.851000 8.984550 -0.406207 -0.000000 -2.976960 1.011100 -2.569700 16.377300 -0.000001 -0.000001 1.311980 1.113700 -0.538983 6.456720 -0.000001 -0.000000 5.526660 0.366474 -4.445700 12.994200 -0.242716 4.980390 -92.988300 8.639940 -70.837700 5.348090 -0.000007 -0.000001 -71.879400 0.513609 0.085915 24.328600 0.000019 0.000005 6.279470 23.427500 -15.470000 22.291600 -0.000001 0.000005 47.274800 4.479550 16.936700 12.994500 -0.242716 -4.980390 88.792000 4.101160 -73.571900 -5.348130 -0.000001 -0.000004 -75.491100 13.535900 -3.953620 -24.328900 0.000322 -0.000009 1.711690 7.930650 -12.228300 -22.291500 -0.000108 -0.000004 34.609800 5.435950 -4.144320 -2.192480 -6.469440 -0.000000 172.223000 -1.250720 -23.596400 39.081100 -0.000007 -0.000012 0.139209 -0.205775 34.078700 40.985400 -0.000006 -0.000013 1.031590 7.282590 -68.613500 11.754300 -0.000000 0.000003 -0.001669 0.192118 -8.782800 -2.192510 6.469440 -0.000001 172.416000 2.562950 167.079000 -39.081100 -0.002282 -0.040193 0.340636 -0.157518 64.979000 -40.985400 0.000008 0.000006 -5.690550 -3.235020 -31.162600 -11.754300 -0.000006 -0.000006 0.000513 0.158540 -10.143400
0.000000 0.000000 0.000000 0.000000 0.000000 -0.000000 194.025000 90.820200 -56.478700 94.002900 -1.202490 -0.333421 15.735700 0.000005 -0.000001 83.234700 86.964900 -84.089700 8.984550 -0.406207 -0.000000 -1.742290 -0.644003 -1.719340 16.377300 -0.000001 -0.000001 1.569130 1.635260 -1.284850 6.456720 -0.000001 -0.000000 5.454160 1.344060 -4.705830 12.994200 -0.242716 4.980390 -92.969300 8.607130 -70.884300 5.348090 -0.000007 -0.000001 -72.914700 5.847180 -1.322460 24.328600 0.000019 0.000005 10.238100 25.432000 -22.810200 22.291600 -0.000001 0.000005 46.865500 4.566010 15.495000 12.994500 -0.242716 -4.980390 88.955000 3.505930 -73.391600 -5.348130 -0.000001 -0.000004 -75.470300 8.959330 -0.482967 -24.328900 0.000322 -0.000009 1.191650 8.778840 -7.767900 -22.291500 -0.000108 -0.000004 34.183800 5.397600 -2.859640 -2.192480 -6.469440 -0.000000 172.917000 -0.366884 -17.652100 39.081100 -0.000007 -0.000012 0.079118 -0.127618 31.796800 40.985400 -0.000006 -0.000013 -0.057440 6.512690 -69.758100 11.754300 -0.000000 0.000003 -0.001664 0.192063 -8.785010 -2.192510 6.469440 -0.000001 173.957000 1.609870 162.912000 -39.081100 -0.002282 -0.040193 0.214267 -0.079810 69.294300 -40.985400 0.000008 0.000006 -3.077620 -3.626900 -37.840500 -11.754300 -0.000006 -0.000006 -0.000302 0.172597 -9.572610
0.000000 0.000000 0.000000 0.000000 0.000000 -0.000000 193.981000 91.634300 -52.542300 92.715300 -1.273650 1.199430 15.735700 0.000005 -0.000001 77.442800 86.345400 -77.641800 8.984550 -0.406207 -0.000000 -0.634364 -1.574180 -0.406570 16.377300 -0.000001 -0.000001 2.102460 1.904260 -1.745040 6.456720 -0.000001 -0.000000 5.365190 1.809410 -5.138140 12.994200 -0.242716 4.980390 -92.915900 8.405350 -70.788600 5.348090 -0.000007 -0.000001 -72.670700 8.764740 -2.834870 24.328600 0.000019 0.000005 16.988800 28.297300 -32.800500 22.291600 -0.000001 0.000005 47.562400 4.634990 14.308600 12.994500 -0.242716 -4.980390 89.161900 2.749360 -73.040100 -5.348130 -0.000001 -0.000004 -74.106700 4.480600 3.387290 -24.328900 0.000322 -0.000009 0.801551 8.964240 -5.137240 -22.291500 -0.000108 -0.000004 34.783900 5.345680 -1.248580 -2.192480 -6.469440 -0.000000 174.418000 0.251579 -11.323200 39.081100 -0.000007 -0.000012 0.008310 -0.015620 28.013600 40.985400 -0.000006 -0.000013 -1.774730 5.942780 -69.949700 11.754300 -0.000000 0.000003 -0.000965 0.182536 -9.172290 -2.192510 6.469440 -0.000001 176.452000 -0.242835 159.758000 -39.081100 -0.002282 -0.040193 0.101757 -0.036340 69.776000 -40.985400 0.000008 0.000006 -2.253760 -5.544870 -46.419500 -11.754300 -0.000006 -0.000006 -0.000812 0.180365 -9.257040
0.000000 0.000000 0.000000 0.000000 0.000000 -0.000000 193.769000 92.384900 -48.834000 91.166800 -1.314350 1.888380 15.735700 0.000005 -0.000001 74.899900 86.031400 -74.431300 8.984550 -0.406207 -0.000000 -0.093818 -2.099300 0.934836 16.377300 -0.000001 -0.000001 2.619040 1.894830 -1.888680 6.456720 -0.000001 -0.000000 5.541530 2.069690 -5.399800 12.994200 -0.242716 4.980390 -92.739100 7.918270 -70.848600 5.348090 -0.000007 -0.000001 -71.920300 8.923780 -4.332710 24.328600 0.000019 0.000005 24.188800 28.124600 -43.617600 22.291600 -0.000001 0.000005 48.244500 4.620930 14.552900 12.994500 -0.242716 -4.980390 89.390900 1.950320 -72.652900 -5.348130 -0.000001 -0.000004 -71.911500 0.750567 7.263850 -24.328900 0.000322 -0.000009 0.476217 8.981500 -3.054240 -22.291500 -0.000108 -0.000004 35.450200 5.305270 -0.076093 -2.192480 -6.469440 -0.000000 176.189000 0.373937 -5.812920 39.081100 -0.000007 -0.000012 -0.012956 0.029447 23.748600 40.985400 -0.000006 -0.000013 -2.738440 6.052750 -69.653700 11.754300 -0.000000 0.000003 -0.000741 0.179286 -9.304340 -2.192510 6.469440 -0.000001 179.153000 -2.104620 157.233000 -39.081100 -0.002282 -0.040193 0.020812 -0.007726 66.370100 -40.985400 0.000008 0.000006 -2.024080 -8.341310 -55.406400 -11.754300 -0.000006 -0.000006 -0.000432 0.174648 -9.489300
